# xmcd
#
# Track frame offsets:
#	150
#	68707
#	129087
#	168077
#	209930
#	304207
#
# Disc length: 4197 seconds
#
# Revision: 1
# Processed by: cddbd v1.5.2PL0 Copyright (c) Steve Scherf et al.
# Submitted via: audiograbber 1.83.01
#
DISCID=50106306
DTITLE=Haskell Small - Gershwin in Black and White
DYEAR=1992
DGENRE=Blues
TTITLE0=Concerto in F - I Allegro
TTITLE1=Concerto in F - II Allegro con moto
TTITLE2=Concerto in F - III Allegro agitato
TTITLE3=Lullaby
TTITLE4=An American in Paris
TTITLE5=Three-Quarter Blues
EXTD=
EXTT0=
EXTT1=
EXTT2=
EXTT3=
EXTT4=
EXTT5=
PLAYORDER=
